P3
16
16
255
193 161 122 193 161 122 193 161 122 193 161 122 193 161 122 193 161 122 193 161 122 193 161 122 193 161 122 193 161 122 193 161 122 69 70 52 193 161 122 193 161 122 193 161 122 193 161 122 
193 161 122 193 161 122 109 102 84 193 161 122 156 152 107 156 152 107 193 161 122 193 161 122 193 161 122 70 65 33 193 161 122 193 161 122 193 161 122 193 161 122 193 161 122 193 161 122 
193 161 122 193 161 122 193 161 122 193 161 122 156 152 107 118 115 98 156 152 107 193 161 122 193 161 122 193 161 122 193 161 122 193 161 122 109 103 81 193 161 122 109 102 84 193 161 122 
193 161 122 193 161 122 193 161 122 109 103 81 193 161 122 118 115 98 193 161 122 193 161 122 109 102 84 193 161 122 193 161 122 193 161 122 193 161 122 193 161 122 193 161 122 193 161 122 
193 161 122 193 161 122 193 161 122 193 161 122 193 161 122 193 161 122 193 161 122 193 161 122 193 161 122 193 161 122 193 161 122 109 102 84 193 161 122 193 161 122 193 161 122 193 161 122 
193 161 122 193 161 122 193 161 122 193 161 122 193 161 122 193 161 122 193 161 122 193 161 122 193 161 122 193 161 122 193 161 122 193 161 122 193 161 122 109 102 84 193 161 122 193 161 122 
193 161 122 109 102 84 193 161 122 193 161 122 193 161 122 193 161 122 193 161 122 193 161 122 109 103 81 193 161 122 193 161 122 193 161 122 193 161 122 193 161 122 193 161 122 193 161 122 
193 161 122 193 161 122 193 161 122 193 161 122 193 161 122 109 102 84 193 161 122 193 161 122 193 161 122 69 70 52 193 161 122 193 161 122 193 161 122 193 161 122 69 70 52 193 161 122 
193 161 122 193 161 122 193 161 122 193 161 122 193 161 122 193 161 122 193 161 122 193 161 122 193 161 122 69 70 52 69 70 52 193 161 122 193 161 122 193 161 122 193 161 122 193 161 122 
193 161 122 193 161 122 193 161 122 109 103 81 193 161 122 193 161 122 193 161 122 193 161 122 193 161 122 193 161 122 193 161 122 193 161 122 109 103 81 193 161 122 193 161 122 193 161 122 
193 161 122 193 161 122 193 161 122 193 161 122 193 161 122 193 161 122 193 161 122 193 161 122 193 161 122 193 161 122 193 161 122 193 161 122 193 161 122 193 161 122 193 161 122 193 161 122 
193 161 122 193 161 122 193 161 122 193 161 122 193 161 122 193 161 122 109 103 81 193 161 122 193 161 122 193 161 122 193 161 122 193 161 122 193 161 122 193 161 122 193 161 122 109 102 84 
193 161 122 193 161 122 193 161 122 193 161 122 193 161 122 193 161 122 193 161 122 193 161 122 193 161 122 109 102 84 193 161 122 193 161 122 193 161 122 156 152 107 156 152 107 163 156 137 
193 161 122 193 161 122 109 102 84 193 161 122 69 70 52 193 161 122 193 161 122 193 161 122 193 161 122 193 161 122 193 161 122 193 161 122 109 103 81 193 161 122 118 115 98 156 152 107 
193 161 122 193 161 122 193 161 122 69 70 52 69 70 52 193 161 122 193 161 122 193 161 122 109 102 84 193 161 122 193 161 122 193 161 122 193 161 122 193 161 122 118 115 98 193 161 122 
193 161 122 193 161 122 193 161 122 193 161 122 193 161 122 193 161 122 193 161 122 193 161 122 193 161 122 193 161 122 193 161 122 193 161 122 193 161 122 193 161 122 193 161 122 193 161 122 
