P3
16
16
255
187 158 126 187 158 126 187 158 126 187 158 126 187 158 126 187 158 126 187 158 126 187 158 126 187 158 126 187 158 126 187 158 126 69 70 52 187 158 126 187 158 126 187 158 126 187 158 126
187 158 126 187 158 126 109 102 84 187 158 126 156 152 107 156 152 107 187 158 126 187 158 126 187 158 126 70 65 33 187 158 126 187 158 126 187 158 126 187 158 126 187 158 126 187 158 126
187 158 126 187 158 126 187 158 126 187 158 126 156 152 107 118 115 98 156 152 107 187 158 126 187 158 126 187 158 126 187 158 126 187 158 126 109 103 81 187 158 126 109 102 84 187 158 126
187 158 126 187 158 126 187 158 126 109 103 81 187 158 126 118 115 98 187 158 126 187 158 126 109 102 84 187 158 126 187 158 126 187 158 126 187 158 126 187 158 126 187 158 126 187 158 126
187 158 126 187 158 126 187 158 126 187 158 126 187 158 126 187 158 126 187 158 126 187 158 126 187 158 126 187 158 126 187 158 126 109 102 84 187 158 126 187 158 126 187 158 126 187 158 126
187 158 126 187 158 126 187 158 126 187 158 126 187 158 126 187 158 126 187 158 126 187 158 126 187 158 126 187 158 126 187 158 126 187 158 126 187 158 126 109 102 84 187 158 126 187 158 126
187 158 126 109 102 84 187 158 126 187 158 126 187 158 126 187 158 126 187 158 126 187 158 126 109 103 81 187 158 126 187 158 126 187 158 126 187 158 126 187 158 126 187 158 126 187 158 126
187 158 126 187 158 126 187 158 126 187 158 126 187 158 126 109 102 84 187 158 126 187 158 126 187 158 126 69 70 52 187 158 126 187 158 126 187 158 126 187 158 126 69 70 52 187 158 126
187 158 126 187 158 126 187 158 126 187 158 126 187 158 126 187 158 126 187 158 126 187 158 126 187 158 126 69 70 52 69 70 52 187 158 126 187 158 126 187 158 126 187 158 126 187 158 126
187 158 126 187 158 126 187 158 126 109 103 81 187 158 126 187 158 126 187 158 126 187 158 126 187 158 126 187 158 126 187 158 126 187 158 126 109 103 81 187 158 126 187 158 126 187 158 126
187 158 126 187 158 126 187 158 126 187 158 126 187 158 126 187 158 126 187 158 126 187 158 126 187 158 126 187 158 126 187 158 126 187 158 126 187 158 126 187 158 126 187 158 126 187 158 126
187 158 126 187 158 126 187 158 126 187 158 126 187 158 126 187 158 126 109 103 81 187 158 126 187 158 126 187 158 126 187 158 126 187 158 126 187 158 126 187 158 126 187 158 126 109 102 84
187 158 126 187 158 126 187 158 126 187 158 126 187 158 126 187 158 126 187 158 126 187 158 126 187 158 126 109 102 84 187 158 126 187 158 126 187 158 126 156 152 107 156 152 107 187 158 126
187 158 126 187 158 126 109 102 84 187 158 126 69 70 52 187 158 126 187 158 126 187 158 126 187 158 126 187 158 126 187 158 126 187 158 126 109 103 81 187 158 126 118 115 98 156 152 107
187 158 126 187 158 126 187 158 126 69 70 52 69 70 52 187 158 126 187 158 126 187 158 126 109 102 84 187 158 126 187 158 126 187 158 126 187 158 126 187 158 126 118 115 98 187 158 126
187 158 126 187 158 126 187 158 126 187 158 126 187 158 126 187 158 126 187 158 126 187 158 126 187 158 126 187 158 126 187 158 126 187 158 126 187 158 126 187 158 126 187 158 126 187 158 126
