P3
16
16
255
193 165 133 193 165 133 193 165 133 193 165 133 193 165 133 193 165 133 193 165 133 193 165 133 193 165 133 193 165 133 193 165 133 193 165 133 193 165 133 193 165 133 193 165 133 193 165 133
193 165 133 193 165 133 193 165 133 193 165 133 193 165 133 193 165 133 193 165 133 193 165 133 193 144 104 193 165 133 193 165 133 193 165 133 193 165 133 193 165 133 193 165 133 193 165 133
193 165 133 193 165 133 193 165 133 193 165 133 193 165 133 193 165 133 193 165 133 193 144 104 193 144 104 193 144 104 193 144 104 193 165 133 193 165 133 193 165 133 193 165 133 193 165 133
193 165 133 104 70 45 193 165 133 193 165 133 193 165 133 193 165 133 193 144 104 193 144 104 193 144 104 193 144 104 193 144 104 193 144 104 193 165 133 193 165 133 104 70 45 193 165 133
193 165 133 193 165 133 193 165 133 193 165 133 193 165 133 193 165 133 193 165 133 193 165 133 193 165 133 193 165 133 193 165 133 193 165 133 193 165 133 193 165 133 193 165 133 193 165 133
193 165 133 193 165 133 193 165 133 193 165 133 193 165 133 193 165 133 193 165 133 193 165 133 193 165 133 193 165 133 193 165 133 193 165 133 193 165 133 193 165 133 193 165 133 193 165 133
193 165 133 193 165 133 193 165 133 106 82 18 193 165 133 193 165 133 106 82 18 193 165 133 193 165 133 193 165 133 193 165 133 193 165 133 193 165 133 193 165 133 255 188 103 193 165 133
193 165 133 193 165 133 106 82 18 142 93 60 193 165 133 127 85 63 193 165 133 193 165 133 193 165 133 104 70 45 193 165 133 193 165 133 193 165 133 193 165 133 193 165 133 193 165 133
193 165 133 193 165 133 193 165 133 193 165 133 142 93 60 142 93 60 106 82 18 193 165 133 193 165 133 193 165 133 193 165 133 193 165 133 193 165 133 193 165 133 193 165 133 193 165 133
193 165 133 193 165 133 193 165 133 106 82 18 142 93 60 193 165 133 193 165 133 193 165 133 193 165 133 193 165 133 193 165 133 193 165 133 193 165 133 193 165 133 193 165 133 193 165 133
193 165 133 193 165 133 193 165 133 193 165 133 142 93 60 193 165 133 193 165 133 193 165 133 193 165 133 193 165 133 193 165 133 193 165 133 104 70 45 193 165 133 193 165 133 193 165 133
193 165 133 193 165 133 193 165 133 193 165 133 193 165 133 193 165 133 193 165 133 193 165 133 193 165 133 193 165 133 193 165 133 193 165 133 104 70 45 193 165 133 193 165 133 193 165 133
193 165 133 193 165 133 193 165 133 255 188 103 193 165 133 193 165 133 193 165 133 193 165 133 193 165 133 193 165 133 255 188 103 193 165 133 193 165 133 193 165 133 193 165 133 193 165 133
193 165 133 104 70 45 193 165 133 193 165 133 193 165 133 193 165 133 193 165 133 104 70 45 193 165 133 193 165 133 193 165 133 193 165 133 193 165 133 255 188 103 193 165 133 193 165 133
193 165 133 193 165 133 193 165 133 193 165 133 193 165 133 193 165 133 193 165 133 193 165 133 193 165 133 193 165 133 193 165 133 193 165 133 193 165 133 193 165 133 193 165 133 193 165 133
193 165 133 193 165 133 193 165 133 193 165 133 193 165 133 193 165 133 193 165 133 193 165 133 193 165 133 193 165 133 193 165 133 193 165 133 193 165 133 193 165 133 193 165 133 193 165 133
