P3
16
16
255
247 210 165 247 210 165 247 210 165 247 210 165 247 210 165 247 210 165 247 210 165 247 210 165 247 210 165 247 210 165 247 210 165 247 210 165 247 210 165 247 210 165 247 210 165 247 210 165 
247 210 165 247 210 165 247 210 165 247 210 165 247 210 165 247 210 165 247 210 165 247 210 165 193 144 104 247 210 165 247 210 165 247 210 165 247 210 165 247 210 165 247 210 165 247 210 165 
247 210 165 247 210 165 247 210 165 247 210 165 247 210 165 247 210 165 247 210 165 193 144 104 193 144 104 193 144 104 193 144 104 247 210 165 247 210 165 247 210 165 247 210 165 247 210 165 
247 210 165 104 70 45 247 210 165 247 210 165 247 210 165 247 210 165 193 144 104 193 144 104 193 144 104 193 144 104 193 144 104 193 144 104 247 210 165 247 210 165 104 70 45 247 210 165 
247 210 165 247 210 165 247 210 165 247 210 165 247 210 165 247 210 165 247 210 165 247 210 165 247 210 165 247 210 165 247 210 165 247 210 165 247 210 165 247 210 165 247 210 165 247 210 165 
247 210 165 247 210 165 247 210 165 247 210 165 247 210 165 247 210 165 247 210 165 247 210 165 247 210 165 247 210 165 247 210 165 247 210 165 247 210 165 247 210 165 247 210 165 247 210 165 
247 210 165 247 210 165 247 210 165 106 82 18 247 210 165 247 210 165 106 82 18 247 210 165 247 210 165 247 210 165 247 210 165 247 210 165 247 210 165 247 210 165 255 188 103 247 210 165 
247 210 165 247 210 165 106 82 18 142 93 60 247 210 165 127 85 63 247 210 165 247 210 165 247 210 165 104 70 45 247 210 165 247 210 165 247 210 165 247 210 165 247 210 165 247 210 165 
247 210 165 247 210 165 247 210 165 247 210 165 142 93 60 142 93 60 106 82 18 247 210 165 247 210 165 247 210 165 247 210 165 247 210 165 247 210 165 247 210 165 247 210 165 247 210 165 
247 210 165 247 210 165 247 210 165 106 82 18 142 93 60 247 210 165 247 210 165 247 210 165 247 210 165 247 210 165 247 210 165 247 210 165 247 210 165 247 210 165 247 210 165 247 210 165 
247 210 165 247 210 165 247 210 165 247 210 165 142 93 60 247 210 165 247 210 165 247 210 165 247 210 165 247 210 165 247 210 165 247 210 165 104 70 45 247 210 165 247 210 165 247 210 165 
247 210 165 247 210 165 247 210 165 247 210 165 247 210 165 247 210 165 247 210 165 247 210 165 247 210 165 247 210 165 247 210 165 247 210 165 104 70 45 247 210 165 247 210 165 247 210 165 
247 210 165 247 210 165 247 210 165 255 188 103 247 210 165 247 210 165 247 210 165 247 210 165 247 210 165 247 210 165 255 188 103 247 210 165 247 210 165 247 210 165 247 210 165 247 210 165 
247 210 165 104 70 45 247 210 165 247 210 165 247 210 165 247 210 165 247 210 165 104 70 45 247 210 165 247 210 165 247 210 165 247 210 165 247 210 165 255 188 103 247 210 165 247 210 165 
247 210 165 247 210 165 247 210 165 247 210 165 247 210 165 247 210 165 247 210 165 247 210 165 247 210 165 247 210 165 247 210 165 247 210 165 247 210 165 247 210 165 247 210 165 247 210 165 
247 210 165 247 210 165 247 210 165 247 210 165 247 210 165 247 210 165 247 210 165 247 210 165 247 210 165 247 210 165 247 210 165 247 210 165 247 210 165 247 210 165 247 210 165 247 210 165 
