P3
16
16
255
207 151 100 207 151 100 207 151 100 207 151 100 207 151 100 207 151 100 207 151 100 207 151 100 207 151 100 207 151 100 207 151 100 207 151 100 207 151 100 207 151 100 207 151 100 207 151 100 
207 151 100 207 151 100 207 151 100 207 151 100 207 151 100 207 151 100 207 151 100 207 151 100 193 144 104 207 151 100 207 151 100 207 151 100 207 151 100 207 151 100 207 151 100 207 151 100 
207 151 100 207 151 100 207 151 100 207 151 100 207 151 100 207 151 100 207 151 100 193 144 104 193 144 104 193 144 104 193 144 104 207 151 100 207 151 100 207 151 100 207 151 100 207 151 100 
207 151 100 104 70 45 207 151 100 207 151 100 207 151 100 207 151 100 193 144 104 193 144 104 193 144 104 193 144 104 193 144 104 193 144 104 207 151 100 207 151 100 104 70 45 207 151 100 
207 151 100 207 151 100 207 151 100 207 151 100 207 151 100 207 151 100 207 151 100 207 151 100 207 151 100 207 151 100 207 151 100 207 151 100 207 151 100 207 151 100 207 151 100 207 151 100 
207 151 100 207 151 100 207 151 100 207 151 100 207 151 100 207 151 100 207 151 100 207 151 100 207 151 100 207 151 100 207 151 100 207 151 100 207 151 100 207 151 100 207 151 100 207 151 100 
207 151 100 207 151 100 207 151 100 106 82 18 207 151 100 207 151 100 106 82 18 207 151 100 207 151 100 207 151 100 207 151 100 207 151 100 207 151 100 207 151 100 255 188 103 207 151 100 
207 151 100 207 151 100 106 82 18 142 93 60 207 151 100 127 85 63 207 151 100 207 151 100 207 151 100 104 70 45 207 151 100 207 151 100 207 151 100 207 151 100 207 151 100 207 151 100 
207 151 100 207 151 100 207 151 100 207 151 100 142 93 60 142 93 60 106 82 18 207 151 100 207 151 100 207 151 100 207 151 100 207 151 100 207 151 100 207 151 100 207 151 100 207 151 100 
207 151 100 207 151 100 207 151 100 106 82 18 142 93 60 207 151 100 207 151 100 207 151 100 207 151 100 207 151 100 207 151 100 207 151 100 207 151 100 207 151 100 207 151 100 207 151 100 
207 151 100 207 151 100 207 151 100 207 151 100 142 93 60 207 151 100 207 151 100 207 151 100 207 151 100 207 151 100 207 151 100 207 151 100 104 70 45 207 151 100 207 151 100 207 151 100 
207 151 100 207 151 100 207 151 100 207 151 100 207 151 100 207 151 100 207 151 100 207 151 100 207 151 100 207 151 100 207 151 100 207 151 100 104 70 45 207 151 100 207 151 100 207 151 100 
207 151 100 207 151 100 207 151 100 255 188 103 207 151 100 207 151 100 207 151 100 207 151 100 207 151 100 207 151 100 255 188 103 207 151 100 207 151 100 207 151 100 207 151 100 207 151 100 
207 151 100 104 70 45 207 151 100 207 151 100 207 151 100 207 151 100 207 151 100 104 70 45 207 151 100 207 151 100 207 151 100 207 151 100 207 151 100 255 188 103 207 151 100 207 151 100 
207 151 100 207 151 100 207 151 100 207 151 100 207 151 100 207 151 100 207 151 100 207 151 100 207 151 100 207 151 100 207 151 100 207 151 100 207 151 100 207 151 100 207 151 100 207 151 100 
207 151 100 207 151 100 207 151 100 207 151 100 207 151 100 207 151 100 207 151 100 207 151 100 207 151 100 207 151 100 207 151 100 207 151 100 207 151 100 207 151 100 207 151 100 207 151 100 
