P3
16
16
255
251 224 181 251 224 181 251 224 181 251 224 181 251 224 181 251 224 181 251 224 181 251 224 181 251 224 181 251 224 181 251 224 181 69 70 52 251 224 181 251 224 181 251 224 181 251 224 181 
251 224 181 251 224 181 109 102 84 251 224 181 156 152 107 156 152 107 251 224 181 251 224 181 251 224 181 70 65 33 251 224 181 251 224 181 251 224 181 251 224 181 251 224 181 251 224 181 
251 224 181 251 224 181 251 224 181 251 224 181 156 152 107 118 115 98 156 152 107 251 224 181 251 224 181 251 224 181 251 224 181 251 224 181 109 103 81 251 224 181 109 102 84 251 224 181 
251 224 181 251 224 181 251 224 181 109 103 81 251 224 181 118 115 98 251 224 181 251 224 181 109 102 84 251 224 181 251 224 181 251 224 181 251 224 181 251 224 181 251 224 181 251 224 181 
251 224 181 251 224 181 251 224 181 251 224 181 251 224 181 251 224 181 251 224 181 251 224 181 251 224 181 251 224 181 251 224 181 109 102 84 251 224 181 251 224 181 251 224 181 251 224 181 
251 224 181 251 224 181 251 224 181 251 224 181 251 224 181 251 224 181 251 224 181 251 224 181 251 224 181 251 224 181 251 224 181 251 224 181 251 224 181 109 102 84 251 224 181 251 224 181 
251 224 181 109 102 84 251 224 181 251 224 181 251 224 181 251 224 181 251 224 181 251 224 181 109 103 81 251 224 181 251 224 181 251 224 181 251 224 181 251 224 181 251 224 181 251 224 181 
251 224 181 251 224 181 251 224 181 251 224 181 251 224 181 109 102 84 251 224 181 251 224 181 251 224 181 69 70 52 251 224 181 251 224 181 251 224 181 251 224 181 69 70 52 251 224 181 
251 224 181 251 224 181 251 224 181 251 224 181 251 224 181 251 224 181 251 224 181 251 224 181 251 224 181 69 70 52 69 70 52 251 224 181 251 224 181 251 224 181 251 224 181 251 224 181 
251 224 181 251 224 181 251 224 181 109 103 81 251 224 181 251 224 181 251 224 181 251 224 181 251 224 181 251 224 181 251 224 181 251 224 181 109 103 81 251 224 181 251 224 181 251 224 181 
251 224 181 251 224 181 251 224 181 251 224 181 251 224 181 251 224 181 251 224 181 251 224 181 251 224 181 251 224 181 251 224 181 251 224 181 251 224 181 251 224 181 251 224 181 251 224 181 
251 224 181 251 224 181 251 224 181 251 224 181 251 224 181 251 224 181 109 103 81 251 224 181 251 224 181 251 224 181 251 224 181 251 224 181 251 224 181 251 224 181 251 224 181 109 102 84 
251 224 181 251 224 181 251 224 181 251 224 181 251 224 181 251 224 181 251 224 181 251 224 181 251 224 181 109 102 84 251 224 181 251 224 181 251 224 181 156 152 107 156 152 107 251 224 181 
251 224 181 251 224 181 109 102 84 251 224 181 69 70 52 251 224 181 251 224 181 251 224 181 251 224 181 251 224 181 251 224 181 251 224 181 109 103 81 251 224 181 118 115 98 156 152 107 
251 224 181 251 224 181 251 224 181 69 70 52 69 70 52 251 224 181 251 224 181 251 224 181 109 102 84 251 224 181 251 224 181 251 224 181 251 224 181 251 224 181 118 115 98 251 224 181 
251 224 181 251 224 181 251 224 181 251 224 181 251 224 181 251 224 181 251 224 181 251 224 181 251 224 181 251 224 181 251 224 181 251 224 181 251 224 181 251 224 181 251 224 181 251 224 181 
