P3
16
16
255
167 138 104 167 138 104 167 138 104 167 138 104 167 138 104 167 138 104 167 138 104 167 138 104 167 138 104 167 138 104 167 138 104 167 138 104 167 138 104 167 138 104 167 138 104 167 138 104 
167 138 104 167 138 104 167 138 104 167 138 104 167 138 104 167 138 104 167 138 104 121 105 56 167 138 104 133 103 69 121 105 56 167 138 104 167 138 104 167 138 104 167 138 104 167 138 104 
167 138 104 167 138 104 167 138 104 167 138 104 167 138 104 167 138 104 121 105 56 133 103 69 167 138 104 133 103 69 167 138 104 167 138 104 167 138 104 167 138 104 121 105 56 167 138 104 
167 138 104 167 138 104 167 138 104 167 138 104 167 138 104 167 138 104 167 138 104 167 138 104 133 103 69 167 138 104 167 138 104 121 105 56 167 138 104 167 138 104 133 103 69 121 105 56 
167 138 104 167 138 104 167 138 104 167 138 104 167 138 104 167 138 104 167 138 104 167 138 104 133 103 69 167 138 104 167 138 104 167 138 104 133 103 69 167 138 104 133 103 69 167 138 104 
167 138 104 167 138 104 167 138 104 121 105 56 167 138 104 167 138 104 167 138 104 167 138 104 167 138 104 167 138 104 167 138 104 167 138 104 167 138 104 133 103 69 167 138 104 167 138 104 
167 138 104 167 138 104 167 138 104 167 138 104 133 103 69 167 138 104 133 103 69 121 105 56 167 138 104 167 138 104 167 138 104 167 138 104 167 138 104 133 103 69 167 138 104 167 138 104 
167 138 104 121 105 56 133 103 69 133 103 69 133 103 69 133 103 69 167 138 104 167 138 104 167 138 104 167 138 104 167 138 104 167 138 104 167 138 104 133 103 69 167 138 104 167 138 104 
167 138 104 167 138 104 121 105 56 167 138 104 133 103 69 167 138 104 167 138 104 167 138 104 167 138 104 167 138 104 167 138 104 167 138 104 167 138 104 167 138 104 167 138 104 167 138 104 
167 138 104 167 138 104 167 138 104 167 138 104 133 103 69 167 138 104 167 138 104 167 138 104 167 138 104 167 138 104 167 138 104 167 138 104 167 138 104 167 138 104 167 138 104 167 138 104 
167 138 104 167 138 104 167 138 104 167 138 104 133 103 69 167 138 104 167 138 104 167 138 104 167 138 104 167 138 104 167 138 104 167 138 104 167 138 104 167 138 104 167 138 104 167 138 104 
167 138 104 167 138 104 167 138 104 167 138 104 167 138 104 167 138 104 167 138 104 167 138 104 167 138 104 167 138 104 167 138 104 167 138 104 167 138 104 167 138 104 167 138 104 167 138 104 
167 138 104 167 138 104 167 138 104 167 138 104 167 138 104 167 138 104 167 138 104 167 138 104 167 138 104 167 138 104 167 138 104 133 103 69 167 138 104 121 105 56 167 138 104 167 138 104 
167 138 104 167 138 104 167 138 104 167 138 104 167 138 104 167 138 104 167 138 104 167 138 104 133 103 69 133 103 69 133 103 69 167 138 104 167 138 104 167 138 104 167 138 104 167 138 104 
167 138 104 167 138 104 121 105 56 167 138 104 167 138 104 167 138 104 167 138 104 167 138 104 167 138 104 167 138 104 167 138 104 167 138 104 167 138 104 167 138 104 167 138 104 167 138 104 
167 138 104 167 138 104 167 138 104 167 138 104 167 138 104 167 138 104 167 138 104 167 138 104 167 138 104 167 138 104 167 138 104 167 138 104 167 138 104 167 138 104 167 138 104 167 138 104 
