P3
16
16
255
177 148 108 177 148 108 177 148 108 177 148 108 177 148 108 177 148 108 177 148 108 177 148 108 177 148 108 177 148 108 177 148 108 177 148 108 177 148 108 177 148 108 177 148 108 177 148 108 
177 148 108 177 148 108 177 148 108 177 148 108 177 148 108 177 148 108 177 148 108 121 105 56 177 148 108 133 103 69 121 105 56 177 148 108 177 148 108 177 148 108 177 148 108 177 148 108 
177 148 108 177 148 108 177 148 108 177 148 108 177 148 108 177 148 108 121 105 56 133 103 69 177 148 108 133 103 69 177 148 108 177 148 108 177 148 108 177 148 108 121 105 56 177 148 108 
177 148 108 177 148 108 177 148 108 177 148 108 177 148 108 177 148 108 177 148 108 177 148 108 133 103 69 177 148 108 177 148 108 121 105 56 177 148 108 177 148 108 133 103 69 121 105 56 
177 148 108 177 148 108 177 148 108 177 148 108 177 148 108 177 148 108 177 148 108 177 148 108 133 103 69 177 148 108 177 148 108 177 148 108 133 103 69 177 148 108 133 103 69 177 148 108 
177 148 108 177 148 108 177 148 108 121 105 56 177 148 108 177 148 108 177 148 108 177 148 108 177 148 108 177 148 108 177 148 108 177 148 108 177 148 108 133 103 69 177 148 108 177 148 108 
177 148 108 177 148 108 177 148 108 177 148 108 133 103 69 177 148 108 133 103 69 121 105 56 177 148 108 177 148 108 177 148 108 177 148 108 177 148 108 133 103 69 177 148 108 177 148 108 
177 148 108 121 105 56 133 103 69 133 103 69 133 103 69 133 103 69 177 148 108 177 148 108 177 148 108 177 148 108 177 148 108 177 148 108 177 148 108 133 103 69 177 148 108 177 148 108 
177 148 108 177 148 108 121 105 56 177 148 108 133 103 69 177 148 108 177 148 108 177 148 108 177 148 108 177 148 108 177 148 108 177 148 108 177 148 108 177 148 108 177 148 108 177 148 108 
177 148 108 177 148 108 177 148 108 177 148 108 133 103 69 177 148 108 177 148 108 177 148 108 177 148 108 177 148 108 177 148 108 177 148 108 177 148 108 177 148 108 177 148 108 177 148 108 
177 148 108 177 148 108 177 148 108 177 148 108 133 103 69 177 148 108 177 148 108 177 148 108 177 148 108 177 148 108 177 148 108 177 148 108 177 148 108 177 148 108 177 148 108 177 148 108 
177 148 108 177 148 108 177 148 108 177 148 108 177 148 108 177 148 108 177 148 108 177 148 108 177 148 108 177 148 108 177 148 108 177 148 108 177 148 108 177 148 108 177 148 108 177 148 108 
177 148 108 177 148 108 177 148 108 177 148 108 177 148 108 177 148 108 177 148 108 177 148 108 177 148 108 177 148 108 177 148 108 133 103 69 177 148 108 121 105 56 177 148 108 177 148 108 
177 148 108 177 148 108 177 148 108 177 148 108 177 148 108 177 148 108 177 148 108 177 148 108 133 103 69 133 103 69 133 103 69 177 148 108 177 148 108 177 148 108 177 148 108 177 148 108 
177 148 108 177 148 108 121 105 56 177 148 108 177 148 108 177 148 108 177 148 108 177 148 108 177 148 108 177 148 108 177 148 108 177 148 108 177 148 108 177 148 108 177 148 108 177 148 108 
177 148 108 177 148 108 177 148 108 177 148 108 177 148 108 177 148 108 177 148 108 177 148 108 177 148 108 177 148 108 177 148 108 177 148 108 177 148 108 177 148 108 177 148 108 177 148 108 
