P3
16
16
255
93 84 51 93 84 51 93 84 51 93 84 51 93 84 51 93 84 51 93 84 51 93 84 51 93 84 51 93 84 51 93 84 51 93 84 51 93 84 51 93 84 51 93 84 51 93 84 51 
93 84 51 93 84 51 54 62 15 34 46 10 34 46 10 93 84 51 93 84 51 34 46 10 34 46 10 34 46 10 93 84 51 93 84 51 93 84 51 54 62 15 93 84 51 93 84 51 
93 84 51 65 71 23 34 46 10 34 46 10 34 46 10 93 84 51 54 62 15 34 46 10 34 46 10 34 46 10 34 46 10 93 84 51 34 46 10 34 46 10 34 46 10 93 84 51 
93 84 51 34 46 10 34 46 10 58 45 26 34 46 10 34 46 10 93 84 51 34 46 10 34 46 10 34 46 10 93 84 51 93 84 51 34 46 10 58 45 26 34 46 10 93 84 51 
93 84 51 93 84 51 93 84 51 58 45 26 93 84 51 93 84 51 93 84 51 34 46 10 58 45 26 34 46 10 93 84 51 93 84 51 93 84 51 58 45 26 93 84 51 93 84 51 
93 84 51 93 84 51 93 84 51 58 45 26 93 84 51 93 115 32 93 84 51 93 84 51 58 45 26 93 84 51 93 84 51 93 84 51 93 84 51 58 45 26 93 84 51 93 84 51 
93 84 51 93 84 51 93 84 51 93 84 51 93 84 51 93 84 51 93 84 51 93 84 51 58 45 26 93 84 51 93 84 51 93 115 32 93 84 51 93 84 51 93 84 51 93 84 51 
93 84 51 93 84 51 93 84 51 37 47 13 34 46 10 93 84 51 93 84 51 93 84 51 58 45 26 93 84 51 93 84 51 93 84 51 93 84 51 93 84 51 93 115 32 93 84 51 
93 84 51 65 71 23 34 46 10 34 46 10 54 62 15 34 46 10 93 84 51 93 84 51 93 84 51 93 84 51 93 84 51 65 71 23 93 84 51 93 84 51 93 84 51 93 84 51 
93 84 51 34 46 10 59 58 12 36 46 10 34 46 10 34 46 10 34 46 10 93 84 51 93 84 51 93 84 51 54 62 15 34 46 10 34 46 10 34 46 10 54 62 15 93 84 51 
93 84 51 93 84 51 48 57 13 58 45 26 58 45 26 34 46 10 54 62 15 93 84 51 93 84 51 93 84 51 34 46 10 34 46 10 34 46 10 34 46 10 34 46 10 93 84 51 
93 84 51 93 84 51 93 84 51 93 84 51 58 45 26 93 84 51 93 84 51 59 72 30 93 84 51 93 84 51 34 46 10 34 46 10 58 45 26 58 45 26 34 46 10 93 84 51 
93 84 51 93 84 51 93 84 51 93 84 51 58 45 26 93 84 51 44 57 18 34 46 10 51 65 23 93 84 51 34 46 10 34 46 10 58 45 26 34 46 10 34 46 10 93 84 51 
93 84 51 93 84 51 93 84 51 93 84 51 93 84 51 93 84 51 46 59 19 58 45 26 42 54 16 93 84 51 93 84 51 93 84 51 58 45 26 93 84 51 93 84 51 93 84 51 
93 84 51 93 115 32 93 84 51 93 84 51 93 84 51 93 84 51 93 84 51 58 45 26 93 84 51 93 84 51 93 84 51 93 84 51 58 45 26 93 84 51 93 115 32 93 84 51 
93 84 51 93 84 51 93 84 51 93 84 51 93 84 51 93 84 51 93 84 51 93 84 51 93 84 51 93 84 51 93 84 51 93 84 51 93 84 51 93 84 51 93 84 51 93 84 51 
