P3
16
16
255
86 104 56 86 104 56 86 104 56 86 104 56 86 104 56 86 104 56 86 104 56 86 104 56 86 104 56 86 104 56 86 104 56 86 104 56 86 104 56 86 104 56 86 104 56 86 104 56 
86 104 56 86 104 56 54 62 15 34 46 10 34 46 10 86 104 56 86 104 56 34 46 10 34 46 10 34 46 10 86 104 56 86 104 56 86 104 56 54 62 15 86 104 56 86 104 56 
86 104 56 65 71 23 34 46 10 34 46 10 34 46 10 86 104 56 54 62 15 34 46 10 34 46 10 34 46 10 34 46 10 86 104 56 34 46 10 34 46 10 34 46 10 86 104 56 
86 104 56 34 46 10 34 46 10 58 45 26 34 46 10 34 46 10 86 104 56 34 46 10 34 46 10 34 46 10 86 104 56 86 104 56 34 46 10 58 45 26 34 46 10 86 104 56 
86 104 56 86 104 56 86 104 56 58 45 26 86 104 56 86 104 56 86 104 56 34 46 10 58 45 26 34 46 10 86 104 56 86 104 56 86 104 56 58 45 26 86 104 56 86 104 56 
86 104 56 86 104 56 86 104 56 58 45 26 86 104 56 109 153 97 86 104 56 86 104 56 58 45 26 86 104 56 86 104 56 86 104 56 86 104 56 58 45 26 86 104 56 86 104 56 
86 104 56 86 104 56 86 104 56 86 104 56 86 104 56 86 104 56 86 104 56 86 104 56 58 45 26 86 104 56 86 104 56 109 153 97 86 104 56 86 104 56 86 104 56 86 104 56 
86 104 56 86 104 56 86 104 56 37 49 12 34 46 10 86 104 56 86 104 56 86 104 56 58 45 26 86 104 56 86 104 56 86 104 56 86 104 56 86 104 56 109 153 97 86 104 56 
86 104 56 65 71 23 34 46 10 34 46 10 54 62 15 34 46 10 86 104 56 86 104 56 86 104 56 86 104 56 86 104 56 65 71 23 86 104 56 86 104 56 86 104 56 86 104 56 
86 104 56 34 46 10 59 58 12 36 46 10 34 46 10 34 46 10 34 46 10 86 104 56 86 104 56 86 104 56 54 62 15 34 46 10 34 46 10 34 46 10 54 62 15 86 104 56 
86 104 56 86 104 56 48 57 13 58 45 26 58 45 26 34 46 10 54 62 15 86 104 56 86 104 56 86 104 56 34 46 10 34 46 10 34 46 10 34 46 10 34 46 10 86 104 56 
86 104 56 86 104 56 86 104 56 86 104 56 58 45 26 86 104 56 86 104 56 59 72 30 84 102 54 86 104 56 34 46 10 34 46 10 58 45 26 58 45 26 34 46 10 86 104 56 
86 104 56 86 104 56 86 104 56 86 104 56 58 45 26 86 104 56 44 57 18 34 46 10 51 65 23 85 103 55 34 46 10 34 46 10 58 45 26 34 46 10 34 46 10 86 104 56 
86 104 56 86 104 56 86 104 56 86 104 56 86 104 56 86 104 56 46 59 19 58 45 26 42 54 16 84 102 54 86 104 56 86 104 56 58 45 26 86 104 56 86 104 56 86 104 56 
86 104 56 109 153 97 86 104 56 86 104 56 86 104 56 86 104 56 86 104 56 58 45 26 86 104 56 86 104 56 86 104 56 86 104 56 58 45 26 86 104 56 109 153 97 86 104 56 
86 104 56 86 104 56 86 104 56 86 104 56 86 104 56 86 104 56 86 104 56 86 104 56 86 104 56 86 104 56 86 104 56 86 104 56 86 104 56 86 104 56 86 104 56 86 104 56 
