P3
16
16
255
78 105 36 78 105 36 78 105 36 78 105 36 78 105 36 78 105 36 78 105 36 78 105 36 78 105 36 78 105 36 78 105 36 78 105 36 78 105 36 78 105 36 78 105 36 78 105 36 
78 105 36 78 105 36 54 62 15 34 46 10 34 46 10 78 105 36 78 105 36 34 46 10 34 46 10 34 46 10 78 105 36 78 105 36 78 105 36 54 62 15 78 105 36 78 105 36 
78 105 36 65 71 23 34 46 10 34 46 10 34 46 10 78 105 36 54 62 15 34 46 10 34 46 10 34 46 10 34 46 10 78 105 36 34 46 10 34 46 10 34 46 10 78 105 36 
78 105 36 34 46 10 34 46 10 58 45 26 34 46 10 34 46 10 78 105 36 34 46 10 34 46 10 34 46 10 78 105 36 78 105 36 34 46 10 58 45 26 34 46 10 78 105 36 
78 105 36 78 105 36 78 105 36 58 45 26 78 105 36 78 105 36 78 105 36 34 46 10 58 45 26 34 46 10 78 105 36 78 105 36 78 105 36 58 45 26 78 105 36 78 105 36 
78 105 36 78 105 36 78 105 36 58 45 26 78 105 36 109 153 97 78 105 36 78 105 36 58 45 26 78 105 36 78 105 36 78 105 36 78 105 36 58 45 26 78 105 36 78 105 36 
78 105 36 78 105 36 78 105 36 78 105 36 78 105 36 78 105 36 78 105 36 78 105 36 58 45 26 78 105 36 78 105 36 109 153 97 78 105 36 78 105 36 78 105 36 78 105 36 
78 105 36 78 105 36 78 105 36 36 49 11 34 46 10 78 105 36 78 105 36 78 105 36 58 45 26 78 105 36 78 105 36 78 105 36 78 105 36 78 105 36 109 153 97 78 105 36 
78 105 36 65 71 23 34 46 10 34 46 10 54 62 15 34 46 10 78 105 36 78 105 36 78 105 36 78 105 36 78 105 36 65 71 23 78 105 36 78 105 36 78 105 36 78 105 36 
78 105 36 34 46 10 59 58 12 36 46 10 34 46 10 34 46 10 34 46 10 78 105 36 78 105 36 78 105 36 54 62 15 34 46 10 34 46 10 34 46 10 54 62 15 78 105 36 
78 105 36 78 105 36 48 57 13 58 45 26 58 45 26 34 46 10 54 62 15 78 105 36 78 105 36 78 105 36 34 46 10 34 46 10 34 46 10 34 46 10 34 46 10 78 105 36 
78 105 36 78 105 36 78 105 36 78 105 36 58 45 26 78 105 36 78 105 36 59 72 30 76 103 35 78 105 36 34 46 10 34 46 10 58 45 26 58 45 26 34 46 10 78 105 36 
78 105 36 78 105 36 78 105 36 78 105 36 58 45 26 78 105 36 44 57 18 34 46 10 51 65 23 77 104 35 34 46 10 34 46 10 58 45 26 34 46 10 34 46 10 78 105 36 
78 105 36 78 105 36 78 105 36 78 105 36 78 105 36 78 105 36 46 59 19 58 45 26 42 54 16 76 103 35 78 105 36 78 105 36 58 45 26 78 105 36 78 105 36 78 105 36 
78 105 36 109 153 97 78 105 36 78 105 36 78 105 36 78 105 36 78 105 36 58 45 26 78 105 36 78 105 36 78 105 36 78 105 36 58 45 26 78 105 36 109 153 97 78 105 36 
78 105 36 78 105 36 78 105 36 78 105 36 78 105 36 78 105 36 78 105 36 78 105 36 78 105 36 78 105 36 78 105 36 78 105 36 78 105 36 78 105 36 78 105 36 78 105 36 
