P3
16
16
255
89 93 66 88 92 65 85 92 61 81 91 56 81 91 56 87 92 63 88 92 65 89 93 66 89 93 66 89 93 66 89 93 66 89 93 66 89 93 66 89 93 66 89 93 66 89 93 66 
89 93 66 87 92 64 75 89 49 69 88 40 68 88 39 72 89 44 85 92 61 88 92 65 88 92 65 88 92 64 88 92 65 89 93 66 88 92 65 86 92 63 87 92 64 88 92 65 
89 93 66 86 92 63 72 88 44 68 88 39 68 88 39 69 88 40 81 91 56 87 92 63 68 88 39 68 88 39 87 92 64 88 92 65 80 90 54 73 89 45 73 89 45 83 91 59 
89 93 66 88 92 65 78 90 52 69 88 40 68 88 39 71 88 43 85 92 61 85 92 61 68 88 39 68 88 39 68 88 39 86 92 63 72 88 44 68 88 39 68 88 39 74 89 47 
89 93 66 88 92 65 85 92 61 79 90 54 79 90 53 85 92 61 88 92 65 88 92 65 68 88 39 105 123 69 68 88 39 86 92 63 72 89 44 68 88 39 68 88 39 77 90 50 
89 93 66 88 92 64 68 88 39 68 88 39 68 88 39 86 92 62 88 92 65 89 93 66 89 93 66 116 133 78 89 93 66 88 92 65 81 91 55 74 89 47 76 89 49 84 91 60 
89 93 66 68 88 39 68 88 39 68 88 39 68 88 39 68 88 39 88 92 65 89 93 66 89 93 66 116 133 78 89 93 66 88 92 65 86 92 62 86 92 62 87 92 64 88 92 65 
89 93 66 88 92 65 68 88 39 88 107 55 68 88 39 68 88 39 88 92 65 89 93 66 89 93 66 89 93 66 88 92 65 68 88 39 68 88 39 68 88 39 86 92 63 88 92 65 
89 93 66 89 93 66 88 92 65 111 129 74 68 88 39 88 92 65 89 93 66 89 93 66 89 93 66 89 93 66 68 88 39 68 88 39 68 88 39 68 88 39 68 88 39 88 92 65 
89 93 66 89 93 66 89 93 66 116 133 78 89 93 66 89 93 66 88 92 65 87 92 64 88 92 65 88 92 65 88 92 65 68 88 39 82 101 51 68 88 39 68 88 39 88 92 65 
89 93 66 89 93 66 89 93 66 116 133 78 89 93 66 88 92 65 83 91 58 76 90 49 79 90 54 86 92 62 88 92 65 87 92 64 108 126 72 87 92 63 88 92 65 89 93 66 
89 93 66 89 93 66 89 93 66 116 133 78 88 92 65 85 92 61 69 88 40 68 88 39 68 88 39 78 90 52 88 92 64 89 93 66 115 132 77 88 92 65 89 93 66 89 93 66 
84 91 60 79 90 53 84 92 60 114 131 77 88 92 65 80 90 54 68 88 39 68 88 39 68 88 39 74 89 47 87 92 63 116 133 78 116 133 78 89 93 66 89 93 66 89 93 66 
74 89 47 69 88 41 74 89 47 86 92 62 88 92 65 85 92 61 69 88 40 68 88 39 68 88 39 80 90 54 88 92 65 116 133 78 89 93 66 89 93 66 89 93 66 89 93 66 
74 89 47 69 88 41 74 89 46 86 92 62 89 93 66 88 92 65 83 91 58 77 90 51 82 91 57 88 92 64 89 93 66 89 93 66 89 93 66 89 93 66 89 93 66 89 93 66 
85 92 61 78 90 52 84 91 59 88 92 65 89 93 66 89 93 66 88 92 65 88 92 64 88 92 65 89 93 66 89 93 66 89 93 66 89 93 66 89 93 66 89 93 66 89 93 66 
