P3
16
16
255
160 173 120 160 173 120 160 173 120 160 173 120 159 172 119 155 170 116 153 168 114 155 169 116 159 172 119 160 173 120 159 172 119 160 173 120 161 173 120 162 174 120 160 173 120 160 173 120 
160 173 120 162 173 120 163 174 120 162 173 120 159 172 119 154 169 115 34 58 26 153 169 114 159 172 119 157 171 117 154 169 115 157 171 117 166 175 120 169 177 122 163 174 120 160 173 120 
161 173 120 167 176 121 170 177 121 169 176 121 164 174 120 34 58 26 34 58 26 34 58 26 158 171 118 154 169 115 152 168 113 155 169 114 34 58 26 172 178 122 165 175 121 160 173 120 
161 173 120 165 175 121 170 177 121 170 176 121 167 175 120 34 58 26 34 58 26 34 58 26 159 172 119 155 170 116 153 168 114 34 58 26 34 58 26 34 58 26 167 176 121 160 173 120 
160 173 120 161 173 120 166 174 120 170 177 121 168 176 121 168 176 121 88 73 50 161 173 120 160 173 120 159 172 119 158 171 118 159 172 119 88 73 50 171 177 121 167 175 120 161 173 120 
160 173 120 160 173 120 162 173 120 167 176 121 165 175 121 162 173 120 161 173 120 160 173 120 160 173 120 160 173 120 159 172 119 160 173 120 160 173 118 162 173 117 160 172 118 158 172 119 
160 173 120 160 173 120 159 172 119 34 58 26 34 58 26 159 172 119 160 173 120 160 173 120 160 173 120 160 173 120 159 172 119 159 172 119 156 170 117 153 168 114 153 168 114 157 171 118 
160 173 120 160 173 120 34 58 26 34 58 26 34 58 26 157 171 118 160 173 120 160 173 120 159 172 119 157 171 117 155 169 115 156 170 116 157 171 117 153 169 114 154 169 115 158 171 118 
160 173 120 159 172 119 157 171 117 88 73 50 152 168 114 155 170 116 159 172 119 160 173 120 159 172 119 153 169 115 152 168 114 154 169 115 158 171 118 158 171 118 158 171 118 159 172 119 
160 173 120 160 173 120 158 172 118 155 169 116 154 169 115 157 171 118 160 173 120 160 173 120 159 172 119 155 169 116 153 168 114 155 170 116 159 172 119 159 172 119 160 173 120 160 173 120 
160 173 120 160 173 120 162 174 120 162 173 119 159 172 119 160 173 120 160 173 120 160 173 120 159 172 119 158 172 119 157 171 118 34 58 26 34 58 26 160 173 120 160 173 120 160 173 120 
160 173 120 161 173 120 168 176 121 171 177 122 34 58 26 34 58 26 160 173 120 160 173 120 160 173 120 159 172 119 158 171 118 34 58 26 34 58 26 34 58 26 158 172 118 159 172 119 
160 173 120 160 173 120 168 176 121 34 58 26 34 58 26 34 58 26 161 173 120 160 173 120 159 172 119 156 170 116 154 169 115 157 171 117 88 73 50 154 169 115 153 168 114 156 170 117 
160 173 120 160 173 120 161 173 120 169 176 121 88 73 50 173 178 122 165 175 121 159 172 119 158 171 118 153 168 114 152 168 114 154 169 115 157 170 117 153 168 114 152 168 114 155 170 116 
160 173 120 160 173 120 160 173 120 161 173 120 165 175 121 166 175 121 161 173 120 160 173 120 158 172 119 155 169 115 153 169 114 156 170 117 159 172 119 156 170 117 155 170 116 157 171 118 
160 173 120 160 173 120 160 173 120 160 173 120 160 173 120 160 173 120 160 173 120 160 173 120 159 172 119 159 172 119 159 172 119 159 172 119 160 173 120 159 172 119 159 172 119 160 173 120 
