P3
16
16
255
57 102 21 57 102 21 57 102 21 57 102 21 57 102 21 57 102 21 57 102 21 57 102 21 57 102 21 57 102 21 57 102 21 57 102 21 57 102 21 57 102 21 57 102 21 57 102 21 
57 102 21 57 102 21 57 102 21 57 102 21 57 102 21 57 102 21 57 102 21 34 58 26 57 102 21 57 102 21 57 102 21 57 102 21 57 102 21 57 102 21 57 102 21 57 102 21 
57 102 21 57 102 21 57 102 21 57 102 21 57 102 21 57 102 21 57 102 21 34 58 26 57 102 21 57 102 21 57 102 21 57 102 21 57 102 21 57 102 21 57 102 21 57 102 21 
57 102 21 57 102 21 57 102 21 57 102 21 57 102 21 57 102 21 34 58 26 34 58 26 34 58 26 34 58 26 57 102 21 34 58 26 57 102 21 57 102 21 57 102 21 57 102 21 
57 102 21 57 102 21 57 102 21 57 102 21 57 102 21 34 58 26 34 58 26 88 73 50 34 58 26 34 58 26 57 102 21 34 58 26 57 102 21 57 102 21 57 102 21 57 102 21 
57 102 21 57 102 21 57 102 21 34 58 26 57 102 21 57 102 21 57 102 21 88 73 50 57 102 21 57 102 21 34 58 26 34 58 26 34 58 26 57 102 21 57 102 21 57 102 21 
57 102 21 57 102 21 57 102 21 34 58 26 57 102 21 57 102 21 57 102 21 57 102 21 57 102 21 34 58 26 34 58 26 88 73 50 34 58 26 57 102 21 57 102 21 57 102 21 
57 102 21 57 102 21 34 58 26 34 58 26 34 58 26 57 102 21 57 102 21 57 102 21 57 102 21 57 102 21 57 102 21 88 73 50 57 102 21 57 102 21 57 102 21 57 102 21 
57 102 21 34 58 26 34 58 26 88 73 50 34 58 26 34 58 26 57 102 21 57 102 21 57 102 21 57 102 21 57 102 21 57 102 21 57 102 21 57 102 21 57 102 21 57 102 21 
57 102 21 57 102 21 57 102 21 88 73 50 57 102 21 57 102 21 57 102 21 57 102 21 57 102 21 57 102 21 57 102 21 57 102 21 57 102 21 34 58 26 57 102 21 57 102 21 
57 102 21 57 102 21 57 102 21 57 102 21 57 102 21 57 102 21 57 102 21 57 102 21 57 102 21 57 102 21 57 102 21 57 102 21 57 102 21 34 58 26 57 102 21 57 102 21 
57 102 21 57 102 21 57 102 21 57 102 21 34 58 26 57 102 21 57 102 21 57 102 21 57 102 21 34 58 26 57 102 21 57 102 21 34 58 26 34 58 26 34 58 26 57 102 21 
57 102 21 57 102 21 57 102 21 57 102 21 34 58 26 57 102 21 57 102 21 57 102 21 57 102 21 34 58 26 57 102 21 57 102 21 57 102 21 88 73 50 57 102 21 57 102 21 
57 102 21 57 102 21 57 102 21 34 58 26 34 58 26 34 58 26 57 102 21 57 102 21 34 58 26 34 58 26 34 58 26 57 102 21 57 102 21 57 102 21 57 102 21 57 102 21 
57 102 21 57 102 21 57 102 21 57 102 21 88 73 50 57 102 21 57 102 21 57 102 21 57 102 21 88 73 50 57 102 21 57 102 21 57 102 21 57 102 21 57 102 21 57 102 21 
57 102 21 57 102 21 57 102 21 57 102 21 57 102 21 57 102 21 57 102 21 57 102 21 57 102 21 57 102 21 57 102 21 57 102 21 57 102 21 57 102 21 57 102 21 57 102 21 
