P3
16
16
255
86 104 56 86 104 56 86 104 56 86 104 56 86 104 56 86 104 56 86 104 56 86 104 56 86 104 56 86 104 56 86 104 56 86 104 56 86 104 56 86 104 56 86 104 56 86 104 56 
86 104 56 86 104 56 86 104 56 86 104 56 86 104 56 86 104 56 86 104 56 34 58 26 86 104 56 86 104 56 86 104 56 86 104 56 86 104 56 86 104 56 86 104 56 86 104 56 
86 104 56 86 104 56 86 104 56 86 104 56 86 104 56 86 104 56 86 104 56 34 58 26 86 104 56 86 104 56 86 104 56 86 104 56 86 104 56 86 104 56 86 104 56 86 104 56 
86 104 56 86 104 56 86 104 56 86 104 56 86 104 56 86 104 56 34 58 26 34 58 26 34 58 26 34 58 26 86 104 56 34 58 26 86 104 56 86 104 56 86 104 56 86 104 56 
86 104 56 86 104 56 86 104 56 86 104 56 86 104 56 34 58 26 34 58 26 88 73 50 34 58 26 34 58 26 86 104 56 34 58 26 86 104 56 86 104 56 86 104 56 86 104 56 
86 104 56 86 104 56 86 104 56 34 58 26 86 104 56 86 104 56 86 104 56 88 73 50 86 104 56 86 104 56 34 58 26 34 58 26 34 58 26 86 104 56 86 104 56 86 104 56 
86 104 56 86 104 56 86 104 56 34 58 26 86 104 56 86 104 56 86 104 56 86 104 56 86 104 56 34 58 26 34 58 26 88 73 50 34 58 26 86 104 56 86 104 56 86 104 56 
86 104 56 86 104 56 34 58 26 34 58 26 34 58 26 86 104 56 86 104 56 86 104 56 86 104 56 86 104 56 86 104 56 88 73 50 86 104 56 86 104 56 86 104 56 86 104 56 
86 104 56 34 58 26 34 58 26 88 73 50 34 58 26 34 58 26 86 104 56 86 104 56 86 104 56 86 104 56 86 104 56 86 104 56 86 104 56 86 104 56 86 104 56 86 104 56 
86 104 56 86 104 56 86 104 56 88 73 50 86 104 56 86 104 56 86 104 56 86 104 56 86 104 56 86 104 56 86 104 56 86 104 56 86 104 56 34 58 26 86 104 56 86 104 56 
86 104 56 86 104 56 86 104 56 86 104 56 86 104 56 86 104 56 86 104 56 86 104 56 86 104 56 86 104 56 86 104 56 86 104 56 86 104 56 34 58 26 86 104 56 86 104 56 
86 104 56 86 104 56 86 104 56 86 104 56 34 58 26 86 104 56 86 104 56 86 104 56 86 104 56 34 58 26 86 104 56 86 104 56 34 58 26 34 58 26 34 58 26 86 104 56 
86 104 56 86 104 56 86 104 56 86 104 56 34 58 26 86 104 56 86 104 56 86 104 56 86 104 56 34 58 26 86 104 56 86 104 56 86 104 56 88 73 50 86 104 56 86 104 56 
86 104 56 86 104 56 86 104 56 34 58 26 34 58 26 34 58 26 86 104 56 86 104 56 34 58 26 34 58 26 34 58 26 86 104 56 86 104 56 86 104 56 86 104 56 86 104 56 
86 104 56 86 104 56 86 104 56 86 104 56 88 73 50 86 104 56 86 104 56 86 104 56 86 104 56 88 73 50 86 104 56 86 104 56 86 104 56 86 104 56 86 104 56 86 104 56 
86 104 56 86 104 56 86 104 56 86 104 56 86 104 56 86 104 56 86 104 56 86 104 56 86 104 56 86 104 56 86 104 56 86 104 56 86 104 56 86 104 56 86 104 56 86 104 56 
