P3
16
16
255
167 175 120 167 175 120 167 175 120 167 175 120 167 175 120 167 175 120 167 175 120 167 175 120 167 175 120 167 175 120 167 175 120 167 175 120 167 175 120 167 175 120 167 175 120 167 175 120
167 175 120 167 175 120 167 175 120 167 175 120 167 175 120 167 175 120 167 175 120 34 58 26 167 175 120 167 175 120 167 175 120 167 175 120 167 175 120 167 175 120 167 175 120 167 175 120
167 175 120 167 175 120 167 175 120 167 175 120 167 175 120 167 175 120 167 175 120 34 58 26 167 175 120 167 175 120 167 175 120 167 175 120 167 175 120 167 175 120 167 175 120 167 175 120
167 175 120 167 175 120 167 175 120 167 175 120 167 175 120 167 175 120 34 58 26 34 58 26 34 58 26 34 58 26 167 175 120 34 58 26 167 175 120 167 175 120 167 175 120 167 175 120
167 175 120 167 175 120 167 175 120 167 175 120 167 175 120 34 58 26 34 58 26 88 73 50 34 58 26 34 58 26 167 175 120 34 58 26 167 175 120 167 175 120 167 175 120 167 175 120
167 175 120 167 175 120 167 175 120 34 58 26 167 175 120 167 175 120 167 175 120 88 73 50 167 175 120 167 175 120 34 58 26 34 58 26 34 58 26 167 175 120 167 175 120 167 175 120
167 175 120 167 175 120 167 175 120 34 58 26 167 175 120 167 175 120 167 175 120 167 175 120 167 175 120 34 58 26 34 58 26 88 73 50 34 58 26 167 175 120 167 175 120 167 175 120
167 175 120 167 175 120 34 58 26 34 58 26 34 58 26 167 175 120 167 175 120 167 175 120 167 175 120 167 175 120 167 175 120 88 73 50 167 175 120 167 175 120 167 175 120 167 175 120
167 175 120 34 58 26 34 58 26 88 73 50 34 58 26 34 58 26 167 175 120 167 175 120 167 175 120 167 175 120 167 175 120 167 175 120 167 175 120 167 175 120 167 175 120 167 175 120
167 175 120 167 175 120 167 175 120 88 73 50 167 175 120 167 175 120 167 175 120 167 175 120 167 175 120 167 175 120 167 175 120 167 175 120 167 175 120 34 58 26 167 175 120 167 175 120
167 175 120 167 175 120 167 175 120 167 175 120 167 175 120 167 175 120 167 175 120 167 175 120 167 175 120 167 175 120 167 175 120 167 175 120 167 175 120 34 58 26 167 175 120 167 175 120
167 175 120 167 175 120 167 175 120 167 175 120 34 58 26 167 175 120 167 175 120 167 175 120 167 175 120 34 58 26 167 175 120 167 175 120 34 58 26 34 58 26 34 58 26 167 175 120
167 175 120 167 175 120 167 175 120 167 175 120 34 58 26 167 175 120 167 175 120 167 175 120 167 175 120 34 58 26 167 175 120 167 175 120 167 175 120 88 73 50 167 175 120 167 175 120
167 175 120 167 175 120 167 175 120 34 58 26 34 58 26 34 58 26 167 175 120 167 175 120 34 58 26 34 58 26 34 58 26 167 175 120 167 175 120 167 175 120 167 175 120 167 175 120
167 175 120 167 175 120 167 175 120 167 175 120 88 73 50 167 175 120 167 175 120 167 175 120 167 175 120 88 73 50 167 175 120 167 175 120 167 175 120 167 175 120 167 175 120 167 175 120
167 175 120 167 175 120 167 175 120 167 175 120 167 175 120 167 175 120 167 175 120 167 175 120 167 175 120 167 175 120 167 175 120 167 175 120 167 175 120 167 175 120 167 175 120 167 175 120
