P3
16
16
255
146 126 101 146 126 101 146 126 101 146 126 101 146 126 101 146 126 101 146 126 101 146 126 101 146 126 101 146 126 101 146 126 101 146 126 101 146 126 101 146 126 101 146 126 101 146 126 101 
146 126 101 146 126 101 146 126 101 146 126 101 146 126 101 146 126 101 146 126 101 34 58 26 146 126 101 146 126 101 146 126 101 146 126 101 146 126 101 146 126 101 146 126 101 146 126 101 
146 126 101 146 126 101 146 126 101 146 126 101 146 126 101 146 126 101 146 126 101 34 58 26 146 126 101 146 126 101 146 126 101 146 126 101 146 126 101 146 126 101 146 126 101 146 126 101 
146 126 101 146 126 101 146 126 101 146 126 101 146 126 101 146 126 101 34 58 26 34 58 26 34 58 26 34 58 26 146 126 101 34 58 26 146 126 101 146 126 101 146 126 101 146 126 101 
146 126 101 146 126 101 146 126 101 146 126 101 146 126 101 34 58 26 34 58 26 88 73 50 34 58 26 34 58 26 146 126 101 34 58 26 146 126 101 146 126 101 146 126 101 146 126 101 
146 126 101 146 126 101 146 126 101 34 58 26 146 126 101 146 126 101 146 126 101 88 73 50 146 126 101 146 126 101 34 58 26 34 58 26 34 58 26 146 126 101 146 126 101 146 126 101 
146 126 101 146 126 101 146 126 101 34 58 26 146 126 101 146 126 101 146 126 101 146 126 101 146 126 101 34 58 26 34 58 26 88 73 50 34 58 26 146 126 101 146 126 101 146 126 101 
146 126 101 146 126 101 34 58 26 34 58 26 34 58 26 146 126 101 146 126 101 146 126 101 146 126 101 146 126 101 146 126 101 88 73 50 146 126 101 146 126 101 146 126 101 146 126 101 
146 126 101 34 58 26 34 58 26 88 73 50 34 58 26 34 58 26 146 126 101 146 126 101 146 126 101 146 126 101 146 126 101 146 126 101 146 126 101 146 126 101 146 126 101 146 126 101 
146 126 101 146 126 101 146 126 101 88 73 50 146 126 101 146 126 101 146 126 101 146 126 101 146 126 101 146 126 101 146 126 101 146 126 101 146 126 101 34 58 26 146 126 101 146 126 101 
146 126 101 146 126 101 146 126 101 146 126 101 146 126 101 146 126 101 146 126 101 146 126 101 146 126 101 146 126 101 146 126 101 146 126 101 146 126 101 34 58 26 146 126 101 146 126 101 
146 126 101 146 126 101 146 126 101 146 126 101 34 58 26 146 126 101 146 126 101 146 126 101 146 126 101 34 58 26 146 126 101 146 126 101 34 58 26 34 58 26 34 58 26 146 126 101 
146 126 101 146 126 101 146 126 101 146 126 101 34 58 26 146 126 101 146 126 101 146 126 101 146 126 101 34 58 26 146 126 101 146 126 101 146 126 101 88 73 50 146 126 101 146 126 101 
146 126 101 146 126 101 146 126 101 34 58 26 34 58 26 34 58 26 146 126 101 146 126 101 34 58 26 34 58 26 34 58 26 146 126 101 146 126 101 146 126 101 146 126 101 146 126 101 
146 126 101 146 126 101 146 126 101 146 126 101 88 73 50 146 126 101 146 126 101 146 126 101 146 126 101 88 73 50 146 126 101 146 126 101 146 126 101 146 126 101 146 126 101 146 126 101 
146 126 101 146 126 101 146 126 101 146 126 101 146 126 101 146 126 101 146 126 101 146 126 101 146 126 101 146 126 101 146 126 101 146 126 101 146 126 101 146 126 101 146 126 101 146 126 101 
