P3
16
16
255
75 102 44 75 102 44 75 102 44 75 102 44 75 102 44 75 102 44 75 102 44 75 102 44 75 102 44 75 102 44 75 102 44 75 102 44 75 102 44 75 102 44 75 102 44 75 102 44 
75 102 44 75 102 44 75 102 44 75 102 44 75 102 44 75 102 44 75 102 44 34 58 26 75 102 44 75 102 44 75 102 44 75 102 44 75 102 44 75 102 44 75 102 44 75 102 44 
75 102 44 75 102 44 75 102 44 75 102 44 75 102 44 75 102 44 75 102 44 34 58 26 75 102 44 75 102 44 75 102 44 75 102 44 75 102 44 75 102 44 75 102 44 75 102 44 
75 102 44 75 102 44 75 102 44 75 102 44 75 102 44 75 102 44 34 58 26 34 58 26 34 58 26 34 58 26 75 102 44 34 58 26 75 102 44 75 102 44 75 102 44 75 102 44 
75 102 44 75 102 44 75 102 44 75 102 44 75 102 44 34 58 26 34 58 26 88 73 50 34 58 26 34 58 26 75 102 44 34 58 26 75 102 44 75 102 44 75 102 44 75 102 44 
75 102 44 75 102 44 75 102 44 34 58 26 75 102 44 75 102 44 75 102 44 88 73 50 75 102 44 75 102 44 34 58 26 34 58 26 34 58 26 75 102 44 75 102 44 75 102 44 
75 102 44 75 102 44 75 102 44 34 58 26 75 102 44 75 102 44 75 102 44 75 102 44 75 102 44 34 58 26 34 58 26 88 73 50 34 58 26 75 102 44 75 102 44 75 102 44 
75 102 44 75 102 44 34 58 26 34 58 26 34 58 26 75 102 44 75 102 44 75 102 44 75 102 44 75 102 44 75 102 44 88 73 50 75 102 44 75 102 44 75 102 44 75 102 44 
75 102 44 34 58 26 34 58 26 88 73 50 34 58 26 34 58 26 75 102 44 75 102 44 75 102 44 75 102 44 75 102 44 75 102 44 75 102 44 75 102 44 75 102 44 75 102 44 
75 102 44 75 102 44 75 102 44 88 73 50 75 102 44 75 102 44 75 102 44 75 102 44 75 102 44 75 102 44 75 102 44 75 102 44 75 102 44 34 58 26 75 102 44 75 102 44 
75 102 44 75 102 44 75 102 44 75 102 44 75 102 44 75 102 44 75 102 44 75 102 44 75 102 44 75 102 44 75 102 44 75 102 44 75 102 44 34 58 26 75 102 44 75 102 44 
75 102 44 75 102 44 75 102 44 75 102 44 34 58 26 75 102 44 75 102 44 75 102 44 75 102 44 34 58 26 75 102 44 75 102 44 34 58 26 34 58 26 34 58 26 75 102 44 
75 102 44 75 102 44 75 102 44 75 102 44 34 58 26 75 102 44 75 102 44 75 102 44 75 102 44 34 58 26 75 102 44 75 102 44 75 102 44 88 73 50 75 102 44 75 102 44 
75 102 44 75 102 44 75 102 44 34 58 26 34 58 26 34 58 26 75 102 44 75 102 44 34 58 26 34 58 26 34 58 26 75 102 44 75 102 44 75 102 44 75 102 44 75 102 44 
75 102 44 75 102 44 75 102 44 75 102 44 88 73 50 75 102 44 75 102 44 75 102 44 75 102 44 88 73 50 75 102 44 75 102 44 75 102 44 75 102 44 75 102 44 75 102 44 
75 102 44 75 102 44 75 102 44 75 102 44 75 102 44 75 102 44 75 102 44 75 102 44 75 102 44 75 102 44 75 102 44 75 102 44 75 102 44 75 102 44 75 102 44 75 102 44 
