P3
16
16
255
57 102 21 57 102 21 57 102 21 57 102 21 57 102 21 57 102 21 57 102 21 57 102 21 57 102 21 57 102 21 57 102 21 57 102 21 57 102 21 57 102 21 57 102 21 57 102 21 
57 102 21 57 102 21 57 102 21 57 102 21 57 102 21 57 102 21 57 102 21 57 102 21 57 102 21 57 102 21 57 102 21 57 102 21 57 102 21 57 102 21 57 102 21 57 102 21 
57 102 21 57 102 21 57 102 21 57 102 21 57 102 21 57 102 21 57 102 21 57 102 21 57 102 21 57 102 21 57 102 21 57 102 21 57 102 21 57 102 21 57 102 21 57 102 21 
57 102 21 57 102 21 57 102 21 34 58 26 34 58 26 57 102 21 57 102 21 57 102 21 57 102 21 57 102 21 57 102 21 57 102 21 57 102 21 57 102 21 57 102 21 57 102 21 
57 102 21 57 102 21 57 102 21 57 102 21 57 102 21 57 102 21 57 102 21 57 102 21 57 102 21 57 102 21 57 102 21 57 102 21 57 102 21 57 102 21 57 102 21 57 102 21 
57 102 21 57 102 21 57 102 21 57 102 21 57 102 21 57 102 21 57 102 21 57 102 21 57 102 21 57 102 21 34 58 26 34 58 26 34 58 26 57 102 21 57 102 21 57 102 21 
57 102 21 57 102 21 57 102 21 57 102 21 57 102 21 57 102 21 57 102 21 57 102 21 57 102 21 57 102 21 57 102 21 57 102 21 57 102 21 57 102 21 57 102 21 57 102 21 
57 102 21 57 102 21 57 102 21 57 102 21 57 102 21 57 102 21 57 102 21 57 102 21 57 102 21 57 102 21 57 102 21 57 102 21 57 102 21 57 102 21 57 102 21 57 102 21 
57 102 21 57 102 21 57 102 21 57 102 21 57 102 21 57 102 21 57 102 21 57 102 21 34 58 26 57 102 21 57 102 21 57 102 21 57 102 21 57 102 21 57 102 21 57 102 21 
57 102 21 57 102 21 57 102 21 57 102 21 57 102 21 57 102 21 57 102 21 34 58 26 34 58 26 34 58 26 34 58 26 57 102 21 57 102 21 57 102 21 57 102 21 57 102 21 
57 102 21 57 102 21 57 102 21 57 102 21 57 102 21 57 102 21 57 102 21 57 102 21 57 102 21 57 102 21 57 102 21 57 102 21 57 102 21 57 102 21 57 102 21 57 102 21 
57 102 21 57 102 21 57 102 21 57 102 21 57 102 21 57 102 21 57 102 21 57 102 21 57 102 21 57 102 21 57 102 21 57 102 21 57 102 21 57 102 21 57 102 21 57 102 21 
57 102 21 57 102 21 34 58 26 34 58 26 34 58 26 57 102 21 57 102 21 57 102 21 57 102 21 57 102 21 57 102 21 57 102 21 57 102 21 34 58 26 57 102 21 57 102 21 
57 102 21 57 102 21 57 102 21 57 102 21 57 102 21 57 102 21 57 102 21 57 102 21 57 102 21 57 102 21 57 102 21 34 58 26 34 58 26 34 58 26 34 58 26 57 102 21 
57 102 21 57 102 21 57 102 21 57 102 21 57 102 21 57 102 21 57 102 21 57 102 21 57 102 21 57 102 21 57 102 21 57 102 21 57 102 21 57 102 21 57 102 21 57 102 21 
57 102 21 57 102 21 57 102 21 57 102 21 57 102 21 57 102 21 57 102 21 57 102 21 57 102 21 57 102 21 57 102 21 57 102 21 57 102 21 57 102 21 57 102 21 57 102 21 
