P3
16
16
255
71 94 12 71 94 12 71 94 12 71 94 12 71 94 12 71 94 12 71 94 12 71 94 12 71 94 12 71 94 12 71 94 12 71 94 12 71 94 12 71 94 12 71 94 12 71 94 12 
71 94 12 71 94 12 71 94 12 71 94 12 0 69 41 0 69 41 0 69 41 0 69 41 124 168 21 124 168 21 124 168 21 124 168 21 71 94 12 71 94 12 71 94 12 71 94 12 
71 94 12 71 94 12 71 94 12 0 69 41 0 69 41 0 69 41 0 69 41 124 168 21 124 168 21 124 168 21 124 168 21 124 168 21 124 168 21 71 94 12 71 94 12 71 94 12 
71 94 12 71 94 12 71 94 12 71 94 12 71 94 12 88 73 50 71 94 12 71 94 12 71 94 12 225 219 185 71 94 12 71 94 12 71 94 12 71 94 12 71 94 12 71 94 12 
71 94 12 71 94 12 124 168 21 124 168 21 124 168 21 124 168 21 71 94 12 71 94 12 71 94 12 225 219 185 71 94 12 71 94 12 71 94 12 71 94 12 71 94 12 71 94 12 
71 94 12 124 168 21 124 168 21 124 168 21 124 168 21 124 168 21 124 168 21 71 94 12 71 94 12 225 219 185 71 94 12 71 94 12 71 94 12 71 94 12 71 94 12 71 94 12 
71 94 12 71 94 12 71 94 12 225 219 185 71 94 12 88 73 50 71 94 12 71 94 12 71 94 12 0 69 41 0 69 41 0 69 41 0 69 41 0 69 41 71 94 12 71 94 12 
71 94 12 71 94 12 71 94 12 225 219 185 71 94 12 88 73 50 71 94 12 71 94 12 0 69 41 0 69 41 0 69 41 0 69 41 0 69 41 0 69 41 0 69 41 71 94 12 
71 94 12 71 94 12 71 94 12 225 219 185 71 94 12 19 84 20 19 84 20 19 84 20 71 94 12 225 219 185 71 94 12 88 73 50 71 94 12 71 94 12 71 94 12 71 94 12 
71 94 12 71 94 12 71 94 12 225 219 185 19 84 20 19 84 20 19 84 20 19 84 20 19 84 20 71 94 12 71 94 12 88 73 50 71 94 12 71 94 12 71 94 12 71 94 12 
71 94 12 71 94 12 71 94 12 225 219 185 71 94 12 71 94 12 46 27 23 71 94 12 71 94 12 71 94 12 71 94 12 88 73 50 71 94 12 71 94 12 71 94 12 71 94 12 
71 94 12 71 94 12 71 94 12 225 219 185 71 94 12 71 94 12 46 27 23 71 94 12 71 94 12 71 94 12 71 94 12 88 73 50 71 94 12 71 94 12 71 94 12 71 94 12 
71 94 12 71 94 12 71 94 12 71 94 12 71 94 12 71 94 12 46 27 23 71 94 12 71 94 12 71 94 12 71 94 12 88 73 50 88 73 50 71 94 12 71 94 12 71 94 12 
71 94 12 71 94 12 71 94 12 71 94 12 71 94 12 71 94 12 46 27 23 71 94 12 71 94 12 71 94 12 71 94 12 71 94 12 88 73 50 71 94 12 71 94 12 71 94 12 
71 94 12 71 94 12 71 94 12 71 94 12 71 94 12 71 94 12 46 27 23 71 94 12 71 94 12 71 94 12 71 94 12 71 94 12 88 73 50 71 94 12 71 94 12 71 94 12 
71 94 12 71 94 12 71 94 12 71 94 12 71 94 12 71 94 12 71 94 12 71 94 12 71 94 12 71 94 12 71 94 12 71 94 12 71 94 12 71 94 12 71 94 12 71 94 12 
