P3
16
16
255
94 124 16 94 124 16 94 124 16 94 124 16 94 124 16 94 124 16 94 124 16 94 124 16 94 124 16 94 124 16 94 124 16 94 124 16 94 124 16 94 124 16 94 124 16 94 124 16 
94 124 16 94 124 16 94 124 16 94 124 16 0 69 41 0 69 41 0 69 41 0 69 41 124 168 21 124 168 21 124 168 21 124 168 21 94 124 16 94 124 16 94 124 16 94 124 16 
94 124 16 94 124 16 94 124 16 0 69 41 0 69 41 0 69 41 0 69 41 124 168 21 124 168 21 124 168 21 124 168 21 124 168 21 124 168 21 94 124 16 94 124 16 94 124 16 
94 124 16 94 124 16 94 124 16 94 124 16 94 124 16 88 73 50 94 124 16 94 124 16 94 124 16 225 219 185 94 124 16 94 124 16 94 124 16 94 124 16 94 124 16 94 124 16 
94 124 16 94 124 16 124 168 21 124 168 21 124 168 21 124 168 21 94 124 16 94 124 16 94 124 16 225 219 185 94 124 16 94 124 16 94 124 16 94 124 16 94 124 16 94 124 16 
94 124 16 124 168 21 124 168 21 124 168 21 124 168 21 124 168 21 124 168 21 94 124 16 94 124 16 225 219 185 94 124 16 94 124 16 94 124 16 94 124 16 94 124 16 94 124 16 
94 124 16 94 124 16 94 124 16 225 219 185 94 124 16 88 73 50 94 124 16 94 124 16 94 124 16 0 69 41 0 69 41 0 69 41 0 69 41 0 69 41 94 124 16 94 124 16 
94 124 16 94 124 16 94 124 16 225 219 185 94 124 16 88 73 50 94 124 16 94 124 16 0 69 41 0 69 41 0 69 41 0 69 41 0 69 41 0 69 41 0 69 41 94 124 16 
94 124 16 94 124 16 94 124 16 225 219 185 94 124 16 19 84 20 19 84 20 19 84 20 94 124 16 225 219 185 94 124 16 88 73 50 94 124 16 94 124 16 94 124 16 94 124 16 
94 124 16 94 124 16 94 124 16 225 219 185 19 84 20 19 84 20 19 84 20 19 84 20 19 84 20 94 124 16 94 124 16 88 73 50 94 124 16 94 124 16 94 124 16 94 124 16 
94 124 16 94 124 16 94 124 16 225 219 185 94 124 16 94 124 16 46 27 23 94 124 16 94 124 16 94 124 16 94 124 16 88 73 50 94 124 16 94 124 16 94 124 16 94 124 16 
94 124 16 94 124 16 94 124 16 225 219 185 94 124 16 94 124 16 46 27 23 94 124 16 94 124 16 94 124 16 94 124 16 88 73 50 94 124 16 94 124 16 94 124 16 94 124 16 
94 124 16 94 124 16 94 124 16 94 124 16 94 124 16 94 124 16 46 27 23 94 124 16 94 124 16 94 124 16 94 124 16 88 73 50 88 73 50 94 124 16 94 124 16 94 124 16 
94 124 16 94 124 16 94 124 16 94 124 16 94 124 16 94 124 16 46 27 23 94 124 16 94 124 16 94 124 16 94 124 16 94 124 16 88 73 50 94 124 16 94 124 16 94 124 16 
94 124 16 94 124 16 94 124 16 94 124 16 94 124 16 94 124 16 46 27 23 94 124 16 94 124 16 94 124 16 94 124 16 94 124 16 88 73 50 94 124 16 94 124 16 94 124 16 
94 124 16 94 124 16 94 124 16 94 124 16 94 124 16 94 124 16 94 124 16 94 124 16 94 124 16 94 124 16 94 124 16 94 124 16 94 124 16 94 124 16 94 124 16 94 124 16 
