P3
16
16
255
191 168 124 191 168 124 191 168 124 191 168 124 191 168 124 191 168 124 191 168 124 191 168 124 191 168 124 191 168 124 191 168 124 191 168 124 191 168 124 191 168 124 191 168 124 191 168 124 
191 168 124 191 168 124 191 168 124 191 168 124 191 168 124 191 168 124 191 168 124 121 105 56 191 168 124 133 103 69 121 105 56 191 168 124 191 168 124 191 168 124 191 168 124 191 168 124 
191 168 124 191 168 124 191 168 124 191 168 124 191 168 124 191 168 124 121 105 56 133 103 69 191 168 124 133 103 69 191 168 124 191 168 124 191 168 124 191 168 124 121 105 56 191 168 124 
191 168 124 191 168 124 191 168 124 191 168 124 191 168 124 191 168 124 191 168 124 191 168 124 133 103 69 191 168 124 191 168 124 121 105 56 191 168 124 191 168 124 133 103 69 121 105 56 
191 168 124 191 168 124 191 168 124 191 168 124 191 168 124 191 168 124 191 168 124 191 168 124 133 103 69 191 168 124 191 168 124 191 168 124 133 103 69 191 168 124 133 103 69 191 168 124 
191 168 124 191 168 124 191 168 124 121 105 56 191 168 124 191 168 124 191 168 124 191 168 124 191 168 124 191 168 124 191 168 124 191 168 124 191 168 124 133 103 69 191 168 124 191 168 124 
191 168 124 191 168 124 191 168 124 191 168 124 133 103 69 191 168 124 133 103 69 121 105 56 191 168 124 191 168 124 191 168 124 191 168 124 191 168 124 133 103 69 191 168 124 191 168 124 
191 168 124 121 105 56 133 103 69 133 103 69 133 103 69 133 103 69 191 168 124 191 168 124 191 168 124 191 168 124 191 168 124 191 168 124 191 168 124 133 103 69 191 168 124 191 168 124 
191 168 124 191 168 124 121 105 56 191 168 124 133 103 69 191 168 124 191 168 124 191 168 124 191 168 124 191 168 124 191 168 124 191 168 124 191 168 124 191 168 124 191 168 124 191 168 124 
191 168 124 191 168 124 191 168 124 191 168 124 133 103 69 191 168 124 191 168 124 191 168 124 191 168 124 191 168 124 191 168 124 191 168 124 191 168 124 191 168 124 191 168 124 191 168 124 
191 168 124 191 168 124 191 168 124 191 168 124 133 103 69 191 168 124 191 168 124 191 168 124 191 168 124 191 168 124 191 168 124 191 168 124 191 168 124 191 168 124 191 168 124 191 168 124 
191 168 124 191 168 124 191 168 124 191 168 124 191 168 124 191 168 124 191 168 124 191 168 124 191 168 124 191 168 124 191 168 124 191 168 124 191 168 124 191 168 124 191 168 124 191 168 124 
191 168 124 191 168 124 191 168 124 191 168 124 191 168 124 191 168 124 191 168 124 191 168 124 191 168 124 191 168 124 191 168 124 133 103 69 191 168 124 121 105 56 191 168 124 191 168 124 
191 168 124 191 168 124 191 168 124 191 168 124 191 168 124 191 168 124 191 168 124 191 168 124 133 103 69 133 103 69 133 103 69 191 168 124 191 168 124 191 168 124 191 168 124 191 168 124 
191 168 124 191 168 124 121 105 56 191 168 124 191 168 124 191 168 124 191 168 124 191 168 124 191 168 124 191 168 124 191 168 124 191 168 124 191 168 124 191 168 124 191 168 124 191 168 124 
191 168 124 191 168 124 191 168 124 191 168 124 191 168 124 191 168 124 191 168 124 191 168 124 191 168 124 191 168 124 191 168 124 191 168 124 191 168 124 191 168 124 191 168 124 191 168 124 
