P3
16
16
255
128 168 104 128 168 104 128 168 104 128 168 104 128 168 104 128 168 104 128 168 104 128 168 104 128 168 104 128 168 104 128 168 104 128 168 104 128 168 104 128 168 104 128 168 104 128 168 104 
128 168 104 128 168 104 128 168 104 128 168 104 128 168 104 128 168 104 128 168 104 128 168 104 128 168 104 128 168 104 128 168 104 128 168 104 128 168 104 128 168 104 128 168 104 128 168 104 
128 168 104 128 168 104 128 168 104 128 168 104 128 168 104 128 168 104 128 168 104 128 168 104 128 168 104 128 168 104 128 168 104 128 168 104 128 168 104 128 168 104 128 168 104 128 168 104 
128 168 104 128 168 104 128 168 104 128 168 104 128 168 104 128 168 104 128 168 104 128 168 104 128 168 104 128 168 104 128 168 104 128 168 104 128 168 104 128 168 104 128 168 104 128 168 104 
128 168 104 128 168 104 128 168 104 38 127 0 38 127 0 38 127 0 128 168 104 128 168 104 128 168 104 128 168 104 128 168 104 128 168 104 128 168 104 128 168 104 128 168 104 128 168 104 
128 168 104 128 168 104 38 127 0 38 127 0 38 127 0 38 127 0 38 127 0 128 168 104 128 168 104 128 168 104 128 168 104 128 168 104 128 168 104 128 168 104 128 168 104 128 168 104 
128 168 104 128 168 104 128 168 104 128 168 104 132 115 95 128 168 104 128 168 104 128 168 104 128 168 104 128 168 104 128 168 104 38 127 0 38 127 0 38 127 0 128 168 104 128 168 104 
128 168 104 128 168 104 128 168 104 128 168 104 132 115 95 128 168 104 128 168 104 128 168 104 128 168 104 128 168 104 38 127 0 38 127 0 38 127 0 38 127 0 38 127 0 128 168 104 
128 168 104 128 168 104 128 168 104 128 168 104 132 115 95 128 168 104 128 168 104 128 168 104 128 168 104 128 168 104 128 168 104 128 168 104 132 115 95 128 168 104 128 168 104 128 168 104 
128 168 104 128 168 104 128 168 104 128 168 104 132 115 95 128 168 104 128 168 104 128 168 104 38 127 0 128 168 104 128 168 104 128 168 104 132 115 95 128 168 104 128 168 104 128 168 104 
128 168 104 128 168 104 128 168 104 128 168 104 132 115 95 128 168 104 128 168 104 38 127 0 38 127 0 38 127 0 128 168 104 128 168 104 132 115 95 128 168 104 128 168 104 128 168 104 
128 168 104 128 168 104 128 168 104 128 168 104 132 115 95 128 168 104 128 168 104 128 168 104 132 115 95 128 168 104 128 168 104 128 168 104 132 115 95 128 168 104 128 168 104 128 168 104 
128 168 104 128 168 104 128 168 104 128 168 104 128 168 104 128 168 104 128 168 104 128 168 104 132 115 95 128 168 104 128 168 104 128 168 104 132 115 95 128 168 104 128 168 104 128 168 104 
128 168 104 128 168 104 128 168 104 128 168 104 128 168 104 128 168 104 128 168 104 128 168 104 132 115 95 128 168 104 128 168 104 128 168 104 132 115 95 128 168 104 128 168 104 128 168 104 
128 168 104 128 168 104 128 168 104 128 168 104 128 168 104 128 168 104 128 168 104 128 168 104 132 115 95 128 168 104 128 168 104 128 168 104 128 168 104 128 168 104 128 168 104 128 168 104 
128 168 104 128 168 104 128 168 104 128 168 104 128 168 104 128 168 104 128 168 104 128 168 104 128 168 104 128 168 104 128 168 104 128 168 104 128 168 104 128 168 104 128 168 104 128 168 104 
