P3
16
16
255
128 168 104 128 168 104 128 168 104 128 168 104 128 168 104 128 168 104 128 168 104 128 168 104 128 168 104 128 168 104 128 168 104 128 168 104 128 168 104 128 168 104 128 168 104 128 168 104 
128 168 104 128 168 104 128 168 104 128 168 104 128 168 104 128 168 104 128 168 104 128 168 104 128 168 104 128 168 104 128 168 104 128 168 104 128 168 104 128 168 104 128 168 104 128 168 104 
128 168 104 128 168 104 128 168 104 128 168 104 128 168 104 128 168 104 128 168 104 128 168 104 128 168 104 128 168 104 128 168 104 128 168 104 128 168 104 128 168 104 128 168 104 128 168 104 
128 168 104 128 168 104 128 168 104 128 168 104 128 168 104 128 168 104 128 168 104 128 168 104 128 168 104 128 168 104 128 168 104 128 168 104 128 168 104 128 168 104 128 168 104 128 168 104 
128 168 104 128 168 104 128 168 104 96 142 8 96 142 8 96 142 8 128 168 104 128 168 104 128 168 104 128 168 104 128 168 104 128 168 104 128 168 104 128 168 104 128 168 104 128 168 104 
128 168 104 128 168 104 96 142 8 96 142 8 96 142 8 96 142 8 96 142 8 128 168 104 128 168 104 128 168 104 128 168 104 128 168 104 128 168 104 128 168 104 128 168 104 128 168 104 
128 168 104 128 168 104 128 168 104 128 168 104 103 103 17 128 168 104 128 168 104 128 168 104 128 168 104 128 168 104 128 168 104 96 142 8 96 142 8 96 142 8 128 168 104 128 168 104 
128 168 104 128 168 104 128 168 104 128 168 104 103 103 17 128 168 104 128 168 104 128 168 104 128 168 104 128 168 104 96 142 8 96 142 8 96 142 8 96 142 8 96 142 8 128 168 104 
128 168 104 128 168 104 128 168 104 128 168 104 103 103 17 128 168 104 128 168 104 128 168 104 128 168 104 128 168 104 128 168 104 128 168 104 103 103 17 128 168 104 128 168 104 128 168 104 
128 168 104 128 168 104 128 168 104 128 168 104 103 103 17 128 168 104 128 168 104 128 168 104 96 142 8 128 168 104 128 168 104 128 168 104 103 103 17 128 168 104 128 168 104 128 168 104 
128 168 104 128 168 104 128 168 104 128 168 104 103 103 17 128 168 104 128 168 104 96 142 8 96 142 8 96 142 8 128 168 104 128 168 104 103 103 17 128 168 104 128 168 104 128 168 104 
128 168 104 128 168 104 128 168 104 128 168 104 103 103 17 128 168 104 128 168 104 128 168 104 103 103 17 128 168 104 128 168 104 128 168 104 103 103 17 128 168 104 128 168 104 128 168 104 
128 168 104 128 168 104 128 168 104 128 168 104 128 168 104 128 168 104 128 168 104 128 168 104 103 103 17 128 168 104 128 168 104 128 168 104 103 103 17 128 168 104 128 168 104 128 168 104 
128 168 104 128 168 104 128 168 104 128 168 104 128 168 104 128 168 104 128 168 104 128 168 104 103 103 17 128 168 104 128 168 104 128 168 104 103 103 17 128 168 104 128 168 104 128 168 104 
128 168 104 128 168 104 128 168 104 128 168 104 128 168 104 128 168 104 128 168 104 128 168 104 103 103 17 128 168 104 128 168 104 128 168 104 128 168 104 128 168 104 128 168 104 128 168 104 
128 168 104 128 168 104 128 168 104 128 168 104 128 168 104 128 168 104 128 168 104 128 168 104 128 168 104 128 168 104 128 168 104 128 168 104 128 168 104 128 168 104 128 168 104 128 168 104 
