P3
16
16
255
149 163 140 149 163 140 149 163 140 149 163 140 149 163 140 149 163 140 149 163 140 149 163 140 149 163 140 149 163 140 149 163 140 149 163 140 149 163 140 149 163 140 149 163 140 149 163 140 
149 163 140 149 163 140 149 163 140 149 163 140 149 163 140 149 163 140 149 163 140 149 163 140 149 163 140 149 163 140 149 163 140 149 163 140 149 163 140 149 163 140 149 163 140 149 163 140 
149 163 140 149 163 140 149 163 140 149 163 140 149 163 140 149 163 140 149 163 140 149 163 140 149 163 140 149 163 140 149 163 140 149 163 140 149 163 140 149 163 140 149 163 140 149 163 140 
149 163 140 149 163 140 149 163 140 149 163 140 149 163 140 149 163 140 149 163 140 149 163 140 149 163 140 149 163 140 149 163 140 149 163 140 149 163 140 149 163 140 149 163 140 149 163 140 
149 163 140 149 163 140 149 163 140 149 163 140 149 163 140 149 163 140 149 163 140 149 163 140 149 163 140 149 163 140 149 163 140 149 163 140 149 163 140 149 163 140 149 163 140 149 163 140 
149 163 140 149 163 140 39 67 0 39 67 0 39 67 0 39 67 0 149 163 140 149 163 140 149 163 140 149 163 140 149 163 140 149 163 140 149 163 140 149 163 140 149 163 140 149 163 140 
149 163 140 39 67 0 39 67 0 39 67 0 39 67 0 39 67 0 39 67 0 149 163 140 149 163 140 149 163 140 39 67 0 39 67 0 39 67 0 39 67 0 39 67 0 149 163 140 
149 163 140 138 127 99 149 163 140 118 98 65 149 163 140 138 127 99 149 163 140 149 163 140 149 163 140 39 67 0 39 67 0 39 67 0 39 67 0 39 67 0 39 67 0 39 67 0 
149 163 140 138 127 99 149 163 140 118 98 65 149 163 140 138 127 99 149 163 140 149 163 140 149 163 140 149 163 140 138 127 99 149 163 140 118 98 65 149 163 140 138 127 99 149 163 140 
149 163 140 149 163 140 149 163 140 118 98 65 149 163 140 149 163 140 149 163 140 39 67 0 39 67 0 149 163 140 149 163 140 149 163 140 118 98 65 149 163 140 138 127 99 149 163 140 
149 163 140 149 163 140 149 163 140 118 98 65 149 163 140 149 163 140 39 67 0 39 67 0 39 67 0 39 67 0 149 163 140 149 163 140 149 163 140 118 98 65 149 163 140 149 163 140 
149 163 140 149 163 140 118 98 65 149 163 140 149 163 140 149 163 140 138 127 99 149 163 140 118 98 65 149 163 140 149 163 140 149 163 140 149 163 140 118 98 65 149 163 140 149 163 140 
149 163 140 149 163 140 149 163 140 149 163 140 149 163 140 149 163 140 149 163 140 149 163 140 118 98 65 149 163 140 149 163 140 149 163 140 149 163 140 149 163 140 149 163 140 149 163 140 
149 163 140 149 163 140 149 163 140 149 163 140 149 163 140 149 163 140 149 163 140 149 163 140 118 98 65 149 163 140 149 163 140 149 163 140 149 163 140 149 163 140 149 163 140 149 163 140 
149 163 140 149 163 140 149 163 140 149 163 140 149 163 140 149 163 140 149 163 140 149 163 140 149 163 140 149 163 140 149 163 140 149 163 140 149 163 140 149 163 140 149 163 140 149 163 140 
149 163 140 149 163 140 149 163 140 149 163 140 149 163 140 149 163 140 149 163 140 149 163 140 149 163 140 149 163 140 149 163 140 149 163 140 149 163 140 149 163 140 149 163 140 149 163 140 
